Coordinates
datacolumns 6
datarows 172
range 0 1.71
inDegrees=yes
Units are S.I. units (second, meters, Newtons, ...)
If the header above contains a line with 'inDegrees', this indicates whether rotational values are in degrees (yes) or radians (no).
endheader
time	foot_tx	hip_flexion_r	knee_angle_r	ankle_angle_r	lumbar
0	0.23232361	65.27927198	-83.68193285	2.34705399	-30.99099213
0.01	0.23226438	65.38138316	-83.64709163	2.31956784	-31.22454305
0.02	0.23217672	65.46048625	-83.61605991	2.30096098	-31.50152524
0.03	0.23207659	65.52481485	-83.58768683	2.28841823	-31.814628
0.04	0.23198014	65.58515038	-83.56092089	2.27865944	-32.15440811
0.05	0.23189383	65.64868195	-83.53526127	2.26958157	-32.51526182
0.06	0.23182231	65.72132218	-83.51065596	2.25986722	-32.8925241
0.07	0.23176307	65.80466438	-83.48695345	2.24927496	-33.28558748
0.08	0.23171394	65.89718582	-83.46363926	2.23799351	-33.69667753
0.09	0.23167181	65.99743727	-83.4402616	2.22651642	-34.12763586
0.1	0.23163313	66.1006257	-83.41591614	2.21554089	-34.58392604
0.11	0.23159793	66.20276907	-83.38980717	2.20555422	-35.0703418
0.12	0.23156211	66.30064353	-83.36132643	2.19716387	-35.59133447
0.13	0.23152476	66.39522948	-83.33027999	2.19036121	-36.14750943
0.14	0.23148447	66.49034641	-83.29664148	2.18458644	-36.73731847
0.15	0.23143957	66.59591583	-83.26081098	2.17847434	-37.35365536
0.16	0.23138848	66.72550187	-83.22340334	2.17023996	-37.98576289
0.17	0.23132964	66.89141038	-83.18530109	2.15869796	-38.62309466
0.18	0.23126186	67.10114322	-83.1473317	2.14365103	-39.25850534
0.19	0.23118599	67.35735659	-83.10934486	2.12513196	-39.88889651
0.2	0.23109989	67.66629281	-83.07455413	2.10515486	-40.50534239
0.21	0.23101925	68.02704125	-83.03949098	2.08180949	-41.10696602
0.22	0.23094455	68.43201643	-83.00476984	2.05752301	-41.69801261
0.23	0.23089077	68.87144519	-82.96661175	2.03194146	-42.28482853
0.24	0.23086383	69.33179113	-82.92234311	2.00639061	-42.87745848
0.25	0.23086803	69.80733992	-82.87030642	1.98172069	-43.47803682
0.26	0.23089571	70.30062409	-82.81148386	1.95956849	-44.08097355
0.27	0.23093474	70.82277433	-82.7489169	1.94181695	-44.67133534
0.28	0.2309685	71.39956174	-82.6865606	1.92933816	-45.21894793
0.29	0.23097159	71.98991704	-82.62821149	1.9307849	-45.76443103
0.3	0.23094105	72.67630829	-82.57930568	1.9410783	-46.21621243
0.31	0.23088407	73.40917381	-82.54041218	1.96653296	-46.62258216
0.32	0.23080017	74.20238128	-82.51369546	2.00777011	-46.96570769
0.33	0.23069848	75.0506662	-82.50068983	2.06668412	-47.24715413
0.34	0.23058308	75.95667964	-82.50251862	2.1442836	-47.46065008
0.35	0.23045352	76.91835816	-82.52086331	2.24264664	-47.60435198
0.36	0.23031747	77.93766871	-82.55613233	2.36226641	-47.67127412
0.37	0.23017353	79.00948966	-82.60781764	2.50428497	-47.66229354
0.38	0.23004391	80.12179328	-82.67179468	2.6670703	-47.5854319
0.39	0.22993078	81.27217978	-82.74692443	2.85072062	-47.43837994
0.4	0.22983668	82.45099117	-82.83120546	3.05556565	-47.22855846
0.41	0.22976493	83.64476358	-82.9183968	3.2803282	-46.97040785
0.42	0.22970744	84.85362218	-83.00950218	3.5261988	-46.66446743
0.43	0.22967579	86.05317451	-83.0969493	3.79061198	-46.34250113
0.44	0.2296668	87.24592849	-83.17645478	4.0716273	-46.00396555
0.45	0.22967849	88.41515937	-83.24313457	4.36789323	-45.6698059
0.46	0.22971965	89.55257886	-83.29128652	4.67610843	-45.35042177
0.47	0.22979058	90.65208166	-83.31911588	4.99498946	-45.0512352
0.48	0.22990461	91.70968239	-83.32152795	5.32063904	-44.77249285
0.49	0.23007342	92.71896187	-83.29722899	5.65142019	-44.51436395
0.5	0.23030367	93.67032639	-83.24640904	5.98578227	-44.27968346
0.51	0.23060067	94.54999118	-83.16995189	6.32356695	-44.07401905
0.52	0.23095873	95.3393351	-83.07246324	6.66574213	-43.90959869
0.53	0.23136145	96.02284251	-82.96123525	7.01466229	-43.79396651
0.54	0.23178711	96.58690971	-82.84382151	7.37223758	-43.73185654
0.55	0.23221011	97.02553882	-82.72669735	7.73940221	-43.717567
0.56	0.23261001	97.33119241	-82.61499047	8.11655755	-43.74756284
0.57	0.23297207	97.48661486	-82.51158057	8.50457174	-43.83030648
0.58	0.2333026	97.56954063	-82.4061905	8.88858151	-43.86839583
0.59	0.23358489	97.48734159	-82.30353349	9.28071886	-43.9635589
0.6	0.23382701	97.31554137	-82.18838298	9.66713089	-44.02803476
0.61	0.23403657	97.05213391	-82.05042898	10.045159	-44.06534841
0.62	0.23421332	96.70397302	-81.87773082	10.41120243	-44.07434271
0.63	0.23436502	96.27720203	-81.6584116	10.76132388	-44.05477644
0.64	0.23451449	95.78271738	-81.37925341	11.08821315	-44.00283832
0.65	0.23465897	95.21875135	-81.0336129	11.39038973	-43.92927188
0.66	0.23480854	94.5969194	-80.61458933	11.66281349	-43.82899146
0.67	0.23496405	93.92472435	-80.11876859	11.90272263	-43.70058169
0.68	0.23513962	93.21828057	-79.54522351	12.10612844	-43.53119698
0.69	0.23532169	92.47873613	-78.89640812	12.27444442	-43.32446996
0.7	0.235511	91.71627811	-78.17650884	12.40762511	-43.07280438
0.71	0.23570635	90.93817279	-77.39173076	12.50696945	-42.77191591
0.72	0.23590351	90.14778885	-76.54703225	12.57385063	-42.4221495
0.73	0.23609032	89.33887859	-75.64784527	12.61146189	-42.03460141
0.74	0.2362635	88.50499532	-74.69964876	12.62270935	-41.62066973
0.75	0.23641659	87.63938956	-73.7071048	12.61014052	-41.19190059
0.76	0.23655014	86.73314464	-72.67571656	12.57675613	-40.76209965
0.77	0.23666301	85.77958637	-71.61083584	12.52521596	-40.34234109
0.78	0.23678263	84.77849792	-70.51422444	12.45396892	-39.93572197
0.79	0.2369039	83.72022681	-69.39335916	12.36798075	-39.55444077
0.8	0.23704225	82.60323613	-68.24859628	12.26635816	-39.20095631
0.81	0.23720041	81.42153199	-67.08265113	12.1511422	-38.88288778
0.82	0.23738473	80.17294666	-65.89662424	12.02287256	-38.60224088
0.83	0.2375947	78.85917166	-64.69250011	11.88282905	-38.35670443
0.84	0.23782404	77.48528455	-63.47391404	11.7333575	-38.14024782
0.85	0.2380637	76.0660571	-62.24335382	11.57535746	-37.93587398
0.86	0.23830068	74.60687745	-61.00560966	11.41222606	-37.73847166
0.87	0.23853062	73.12379189	-59.76153924	11.24357611	-37.53061066
0.88	0.23874699	71.61600106	-58.51360192	11.07164826	-37.31551054
0.89	0.23895713	70.09380213	-57.26127945	10.89496812	-37.08356227
0.9	0.23916753	68.55661112	-56.0038526	10.71302495	-36.83703664
0.91	0.23938776	67.00975682	-54.74010478	10.52408029	-36.57236663
0.92	0.23962306	65.45415435	-53.46799497	10.32668832	-36.29006839
0.93	0.23987607	63.89231607	-52.18476229	10.11901866	-35.9886482
0.94	0.2401509	62.32201388	-50.88554939	9.89845081	-35.67128663
0.95	0.24043405	60.74307697	-49.57137407	9.6663314	-35.33874072
0.96	0.24072873	59.16146976	-48.23564577	9.41863364	-34.98481735
0.97	0.24102403	57.56550967	-46.87632074	9.15597969	-34.62123335
0.98	0.24129776	55.9622956	-45.50021291	8.88289613	-34.24131929
0.99	0.24154066	54.34202625	-44.10054108	8.59729249	-33.85349265
1	0.24174129	52.71835966	-42.68182102	8.30116106	-33.44435889
1.01	0.24189006	51.08315695	-41.24449753	7.99602312	-33.02341282
1.02	0.241986	49.4426288	-39.79144884	7.68284521	-32.58683912
1.03	0.2420298	47.79967236	-38.32570458	7.36283844	-32.13434495
1.04	0.2420235	46.15783652	-36.85109249	7.03740806	-31.66508301
1.05	0.24197001	44.52162245	-35.37279337	6.70835094	-31.17773199
1.06	0.2418738	42.89644706	-33.89753898	6.37803198	-30.67030921
1.07	0.2417387	41.2939434	-32.43364364	6.04949416	-30.13486368
1.08	0.24156946	39.71504376	-30.98816961	5.72621779	-29.57377598
1.09	0.24136906	38.17374621	-29.56904962	5.41157313	-28.9769171
1.1	0.24114035	36.67960767	-28.18318306	5.10855441	-28.33944305
1.11	0.24088689	35.23856769	-26.83645171	4.81953353	-27.6612281
1.12	0.24061566	33.86141158	-25.53462259	4.54573744	-26.93756725
1.13	0.24033436	32.55119384	-24.28138807	4.28785052	-26.17138226
1.14	0.24005383	31.31004659	-23.08090963	4.04660912	-25.36763012
1.15	0.23978241	30.13294845	-21.93321646	3.82196961	-24.53477773
1.16	0.2395298	29.0137085	-20.8391526	3.61451745	-23.68288983
1.17	0.23930329	27.9511544	-19.79703221	3.42362508	-22.8138123
1.18	0.23910948	26.94054322	-18.80582534	3.24928319	-21.93333195
1.19	0.23893805	25.97398299	-17.86343221	3.09214209	-21.05029179
1.2	0.23879329	25.05322951	-16.97106671	2.95222182	-20.16447756
1.21	0.23866397	24.17497419	-16.12745581	2.82973142	-19.2793808
1.22	0.23854388	23.36497337	-15.33352862	2.72303399	-18.36919577
1.23	0.23843816	22.57263075	-14.58444213	2.63244563	-17.48978589
1.24	0.23834546	21.80500854	-13.87826437	2.55615978	-16.63380537
1.25	0.23826865	21.06687026	-13.21474125	2.49321215	-15.79750738
1.26	0.23821132	20.36272125	-12.59293434	2.44242675	-14.97698667
1.27	0.23817292	19.73722597	-12.02040146	2.40417568	-14.12906132
1.28	0.23814944	19.1280004	-11.47985765	2.37445276	-13.31616831
1.29	0.23813649	18.55380842	-10.97441567	2.35370661	-12.51755367
1.3	0.23812802	18.01167696	-10.49966215	2.33960199	-11.73910854
1.31	0.23811766	17.49573492	-10.04752605	2.32866712	-10.98339174
1.32	0.23809954	17.00480355	-9.61764609	2.32079088	-10.25124555
1.33	0.23806983	16.53119869	-9.20485403	2.31402072	-9.5477333
1.34	0.23802213	16.07241053	-8.8073138	2.3082077	-8.87266073
1.35	0.2379541	15.6219869	-8.42144762	2.30273622	-8.22724301
1.36	0.23786199	15.1793477	-8.04603563	2.29791175	-7.60787938
1.37	0.23775157	14.74011568	-7.67455312	2.29089664	-7.01436982
1.38	0.23761227	14.28043419	-7.30691504	2.28449384	-6.47075308
1.39	0.23745581	13.87541082	-6.94621745	2.27543873	-5.8894778
1.4	0.23727643	13.42453224	-6.58061937	2.26524671	-5.37813687
1.41	0.2370743	13.0211598	-6.22724924	2.25684837	-4.83835461
1.42	0.23685721	12.5864534	-5.87144434	2.24822911	-4.35074464
1.43	0.23662981	12.16430936	-5.5237624	2.24151054	-3.87300831
1.44	0.23639778	11.75391769	-5.18654648	2.23745278	-3.40901291
1.45	0.23616307	11.35153038	-4.86034654	2.23607319	-2.96641247
1.46	0.23593015	10.96008517	-4.54913661	2.23817158	-2.54825854
1.47	0.23570286	10.58117823	-4.25446986	2.24374087	-2.1558845
1.48	0.23548197	10.17069966	-3.97116303	2.25288666	-1.8386272
1.49	0.23526962	9.78780173	-3.70840476	2.26617261	-1.53362335
1.5	0.23507066	9.40553849	-3.4625866	2.28363503	-1.26833829
1.51	0.23488685	9.02547934	-3.23548374	2.30656055	-1.03924562
1.52	0.2347242	8.64873054	-3.02604356	2.33451969	-0.84138913
1.53	0.23458741	8.27447827	-2.83511361	2.36836595	-0.67324511
1.54	0.23448422	7.90448967	-2.6633788	2.40837036	-0.53029498
1.55	0.23441488	7.54444098	-2.51054278	2.45447101	-0.40340945
1.56	0.23438833	7.19734437	-2.37724276	2.50655591	-0.28797994
1.57	0.23440672	6.86669906	-2.26406964	2.56483673	-0.17848665
1.58	0.23447588	6.55704116	-2.17200636	2.62887141	-0.07229201
1.59	0.23459419	6.27043362	-2.10190236	2.69905232	0.03377141
1.6	0.23476236	6.01024544	-2.05443214	2.77474219	0.14053943
1.61	0.23497791	5.77970575	-2.02943412	2.8549693	0.2490951
1.62	0.23523795	5.60533376	-2.02837752	2.93823261	0.38684127
1.63	0.23553047	5.41033947	-2.04399965	3.02555667	0.46571172
1.64	0.23584699	5.28065796	-2.08567852	3.11616617	0.57795998
1.65	0.23619678	5.16284683	-2.12823695	3.20063246	0.67928507
1.66	0.2365571	5.05866167	-2.17435424	3.28114812	0.76935981
1.67	0.23690388	4.97548631	-2.23686931	3.36454582	0.84596739
1.68	0.23724374	4.90456069	-2.29291342	3.44074849	0.92035596
1.69	0.23756787	4.86309473	-2.34284306	3.50981009	1.01501808
1.7	0.23786202	4.80116511	-2.38305974	3.57401201	1.07468781
1.71	0.2381319	4.73858479	-2.40762703	3.62971681	1.13203716
